<svg width="100" height="100" viewBox="0 0 100 100" fill="none" xmlns="http://www.w3.org/2000/svg">
<path d="M100 23.4768C100 17.0508 94.772 11.8238 88.347 11.8238H84.347V19.8238H88.347C90.362 19.8238 92 21.4628 92 23.4768C92 25.4908 90.361 27.1308 88.347 27.1308H86.497C78.532 19.0908 66.435 13.9588 52.886 13.9588C47.473 13.9588 42.292 14.7778 37.513 16.2738C36.63 16.5498 35.766 16.8578 34.911 17.1798C31.852 13.6778 24.909 7.27382 16.727 9.79982C16.727 9.79982 22.47 23.2838 19.756 26.2068C17.873 28.1508 14.341 31.5128 12.771 33.3788C10.43 36.1598 0 36.4058 0 36.4058L0.146 53.6998L15.966 68.7708C16.333 69.2608 16.713 69.7428 17.108 70.2168L26.798 95.2498H35.985L37.528 83.4688C42.303 84.9628 47.478 85.7848 52.886 85.7848C58.223 85.7848 63.332 84.9848 68.055 83.5288L69.59 95.2508H78.777L88.301 70.6458C93.342 64.7808 96.316 57.6148 96.316 49.8718C96.316 44.3658 94.813 39.1508 92.134 34.4868C96.703 32.9088 100 28.5748 100 23.4768ZM25.441 40.7588C23.232 40.7588 21.441 38.9678 21.441 36.7588C21.441 34.5498 23.232 32.7588 25.441 32.7588C27.65 32.7588 29.441 34.5498 29.441 36.7588C29.441 38.9678 27.65 40.7588 25.441 40.7588ZM71.567 37.4708L68.207 35.3008C65.739 33.7068 62.963 32.5218 59.956 31.7778C54.651 30.4648 48.792 30.6318 43.617 32.2528C42.448 32.6188 41.305 33.0598 40.22 33.5638L36.592 35.2488L33.222 27.9938L36.849 26.3088C38.252 25.6578 39.725 25.0888 41.227 24.6188C44.873 23.4768 48.711 22.8978 52.635 22.8978C55.779 22.8978 58.888 23.2728 61.878 24.0128C65.744 24.9698 69.334 26.5068 72.547 28.5808L75.907 30.7508L71.567 37.4708Z" fill="white"/>
</svg>
