<svg height="511pt" viewBox="0 -39 511.99944 511" width="511pt" xmlns="http://www.w3.org/2000/svg"><path d="m38.707031 4.949219c-9.40625 1.695312-17.332031 7.980469-21.261719 16.695312-14.273437 31.660157-40.316406 111.378907 24.238282 171.457031l134.804687-155.800781s-28.675781-52.039062-137.78125-32.351562zm0 0" fill="#ffc9d3"/><path d="m473.292969 4.949219c9.40625 1.695312 17.332031 7.980469 21.261719 16.695312 14.273437 31.660157 40.3125 111.378907-24.238282 171.457031l-134.804687-155.800781s28.675781-52.039062 137.78125-32.351562zm0 0" fill="#ffc9d3"/><g fill="#ff9db0"><path d="m499.171875 154.878906c-12.574219-36.257812-33.277344-69.488281-61.210937-97.421875-19.535157-19.535156-41.65625-35.53125-65.589844-47.691406-27.6875 10.902344-36.859375 27.535156-36.859375 27.535156l134.804687 155.800781c13.03125-12.125 22.363282-25.054687 28.855469-38.222656zm0 0"/><path d="m12.828125 154.878906c6.492187 13.171875 15.824219 26.097656 28.855469 38.222656l134.804687-155.800781s-9.171875-16.632812-36.859375-27.535156c-23.933594 12.160156-46.058594 28.15625-65.589844 47.691406-27.933593 27.933594-48.636718 61.164063-61.210937 97.421875zm0 0"/><path d="m123.292969 45.851562c-8.507813-3.082031-20.980469-5.8125-38.453125-5.8125-5.980469 0-12.542969.320313-19.738282 1.054688-8.648437.882812-15.96875 6.804688-18.609374 15.089844-2.273438 7.132812-4.339844 15.265625-5.621094 23.972656-5.0625 34.4375 4.015625 61.914062 27.75 84.003906l74.339844-105.949218c-.210938-.292969-5.296876-7.15625-19.667969-12.359376zm0 0"/><path d="m388.707031 45.851562c8.507813-3.082031 20.980469-5.8125 38.453125-5.8125 5.980469 0 12.542969.320313 19.738282 1.054688 8.648437.882812 15.96875 6.804688 18.609374 15.089844 2.273438 7.132812 4.339844 15.265625 5.621094 23.972656 5.0625 34.4375-4.015625 61.914062-27.75 84.003906l-74.339844-105.949218c.210938-.292969 5.296876-7.15625 19.667969-12.359376zm0 0"/></g><path d="m437.960938 57.457031c-6.078126-6.078125-12.40625-11.816406-18.964844-17.199219-13.269532.691407-23.171875 3.015626-30.289063 5.59375-14.371093 5.207032-19.457031 12.066407-19.667969 12.359376l74.339844 105.949218c18.957032-17.640625 28.550782-38.726562 29.074219-64.042968-9.847656-15.230469-21.363281-29.53125-34.492187-42.660157zm0 0" fill="#ff889e"/><path d="m39.546875 100.117188c.523437 25.316406 10.117187 46.402343 29.074219 64.042968l74.339844-105.949218c-.210938-.289063-5.296876-7.152344-19.667969-12.359376-7.117188-2.578124-17.019531-4.902343-30.289063-5.59375-6.558594 5.382813-12.886718 11.121094-18.964844 17.199219-13.128906 13.128907-24.644531 27.429688-34.492187 42.660157zm0 0" fill="#ff889e"/><path d="m487.578125 239.417969c0 127.898437-103.679687 194.300781-231.578125 194.300781s-231.578125-66.402344-231.578125-194.300781c0-127.898438 103.679687-231.578125 231.578125-231.578125s231.578125 103.679687 231.578125 231.578125zm0 0" fill="#ffc9d3"/><path d="m284.484375 211.292969c-18.011719-8.503907-38.960937-8.503907-56.96875 0-19.8125 9.355469-42.683594 27.738281-42.683594 62.773437 0 31.984375 40.230469 34.707032 64.765625 23.46875 4.054688-1.859375 8.75-1.859375 12.804688 0 24.535156 11.238282 64.765625 8.511719 64.765625-23.46875 0-35.035156-22.871094-53.421875-42.683594-62.773437zm0 0" fill="#ff889e"/><path d="m146.378906 274.820312h-22.34375c-4.265625 0-7.726562-3.460937-7.726562-7.726562s3.460937-7.726562 7.726562-7.726562h22.34375c4.265625 0 7.726563 3.460937 7.726563 7.726562s-3.460938 7.726562-7.726563 7.726562zm0 0" fill="#ff9db0"/><path d="m149.394531 247.035156c-4.269531 0-7.726562-3.457031-7.726562-7.722656v-18.90625c0-4.265625 3.457031-7.726562 7.726562-7.726562 4.265625 0 7.722657 3.460937 7.722657 7.726562v18.90625c0 4.265625-3.457032 7.722656-7.722657 7.722656zm0 0" fill="#423e4f"/><path d="m387.964844 274.820312h-22.34375c-4.269532 0-7.726563-3.460937-7.726563-7.726562s3.457031-7.726562 7.726563-7.726562h22.34375c4.265625 0 7.722656 3.460937 7.722656 7.726562s-3.457031 7.726562-7.722656 7.726562zm0 0" fill="#ff9db0"/><path d="m362.605469 247.035156c-4.265625 0-7.726563-3.457031-7.726563-7.722656v-18.90625c0-4.265625 3.460938-7.726562 7.726563-7.726562 4.269531 0 7.726562 3.460937 7.726562 7.726562v18.90625c0 4.265625-3.457031 7.722656-7.726562 7.722656zm0 0" fill="#423e4f"/><path d="m239.667969 241.441406c-7.425781-5.070312-18.734375-1.429687-25.265625 8.136719-6.527344 9.5625-5.796875 21.421875 1.628906 26.492187 7.425781 5.070313 18.734375 1.425782 25.265625-8.136718 6.527344-9.5625 5.796875-21.425782-1.628906-26.492188zm0 0" fill="#423e4f"/><path d="m297.589844 249.570312c-6.527344-9.5625-17.839844-13.203124-25.265625-8.132812-7.425781 5.066406-8.15625 16.929688-1.625 26.492188 6.527343 9.5625 17.839843 13.207031 25.265625 8.136718 7.425781-5.070312 8.152344-16.929687 1.625-26.496094zm0 0" fill="#423e4f"/></svg>